# xmcd
#
# Track frame offsets:
#	150
#	17917
#	33572
#	48667
#	60255
#	70750
#	84900
#	99460
#	110825
#	128899
#	140450
#	157364
#	171131
#	185497
#	206767
#	218223
#	246304
#	273387
#
# Disc length: 4137 seconds
#
# Revision: 0
# Processed by: cddbd v1.5.2PL0 Copyright (c) Steve Scherf et al.
# Submitted via: EasyCDDAExtractor 16.0.6.1
#
DISCID=10102712
DTITLE=Τα μελοποιημένα 12
DYEAR=2010
DGENRE=Έντεχνη
TTITLE0=Φαραντούρη Μαρία - Άρνησις [Μ. Θεοδωράκης-Γ. Σεφέρης]
TTITLE1=Στόκας Μπάμπης - Έχω έναν καφενέ [Μ. Λοΐζος-Λ. Παπαδόπουλος]
TTITLE2=Πουλόπουλος Γιάννης - Κόρντοβα (Cordoba)[Γ. Γλέζος-F.G.Lorca, απ. Λ.Πα
TTITLE2=παδόπουλος]
TTITLE3=Ξυδάκης Νίκος - Η γυναίκα του πρωτομάστορα [Νίκος Ξυδάκης-Μιχ. Γκανάς]
TTITLE4=Μητσιάς Μανώλης - Είχα φυτέψει μια καρδιά [Μ. Θεοδωράκης-Ν. Γκάτσος]
TTITLE5=Βιολάρης Μιχάλης - Τρεις νέοι [Γιάννης Σπανός-Αιμιλία Δάφνη]
TTITLE6=Πρωτοψάλτη Άλκηστις - Αυτές οι ξένες αγκαλιές [Ηλ. Ανδριόπουλος-Μ. Ελε
TTITLE6=υθερίου]
TTITLE7=Ζωγράφος Γιώργος - Αν η νύχτα αργει να περάση [Ν. Μαμαγκάκης-Ν. Εγγονό
TTITLE7=πουλος]
TTITLE8=Βενετσάνου Νένα - Η ώρα ξεχάστηκε [Ηλ. Ανδριόπουλος-Οδ. Ελύτης]
TTITLE9=Μοσχολιού Βίκυ-Γεδερμετζόγλου Γ. - Επεμβαίνεις [Στ. Κραουνάκης-Κώστας 
TTITLE9=Τριπολίτης]
TTITLE10=Μπέλλου Σωτηρία-χορωδία - Χρόνια περιφρονημένα [Δημ. Λάγιος-Μιχ. Μπου
TTITLE10=ρμπούλης]
TTITLE11=Φαραντούρη Μαρία - Κουβέντα μ' ένα λουλούδι [Μ. Θεοδωράκης-Γ. Ρίτσος]
TTITLE12=Αρλέτα - Ο θρήνος της μάννας [Γ. Σπανός-Ηλ. Σιμόπουλος]
TTITLE13=Ξυδούς Μάνος - Δεν το θέλω, μα το βλέπω(Ανάμνηση)[Μάν. Ξυδούς-Χαρ. Χα
TTITLE13=τζηνάκης]
TTITLE14=Ψαριανός Δημήτρης - Ήμουν δικός σου [Χρ. Γκάρτζος-P. Neruda, απ. Λ.Πα
TTITLE14=παδόπουλος]
TTITLE15=Μάνου Αφροδίτη-Μπουλάς Σάκης - Ανεπίδοτα γράμματα [Μιχ. Γρηγορίου-Άρη
TTITLE15=ς Αλεξάνδρου]
TTITLE16=Πανδής Πέτρος - Το ναυάγιο [Μ. Θεοδωράκης-Μαν. Αναγνωστάκης]
TTITLE17=Άβατον - Αερίων επέων άρχομαι [Ν.Γράψας,Ι.Παπαδάκης,Π.Ξυδιάς,Ν.Καρβού
TTITLE17=νη-Σαπφώ]
EXTD=
EXTT0=
EXTT1=
EXTT2=
EXTT3=
EXTT4=
EXTT5=
EXTT6=
EXTT7=
EXTT8=
EXTT9=
EXTT10=
EXTT11=
EXTT12=
EXTT13=
EXTT14=
EXTT15=
EXTT16=
EXTT17=
PLAYORDER=
